<?xml version="1.0" encoding="utf-8"?>
<!-- Generator: Adobe Illustrator 21.0.0, SVG Export Plug-In . SVG Version: 6.00 Build 0)  -->
<svg version="1.1" id="Layer_1" xmlns="http://www.w3.org/2000/svg" xmlns:xlink="http://www.w3.org/1999/xlink" x="0px" y="0px"
	 viewBox="0 0 24 24" style="enable-background:new 0 0 24 24;" xml:space="preserve">
<style type="text/css">
	.st0{fill:#55FF55;}
</style>
<path class="st0" d="M12,9c-1.7,0-3,1.3-3,3s1.3,3,3,3s3-1.3,3-3S13.7,9,12,9 M19,19h-4v2h4c1.1,0,2-0.9,2-2v-4h-2 M19,3h-4v2h4v4h2
	V5C21,3.9,20.1,3,19,3 M5,5h4V3H5C3.9,3,3,3.9,3,5v4h2 M5,15H3v4c0,1.1,0.9,2,2,2h4v-2H5V15z"/>
</svg>
