<?xml version="1.0" encoding="utf-8"?>
<svg version="1.1" id="Layer_1" xmlns="http://www.w3.org/2000/svg" xmlns:xlink="http://www.w3.org/1999/xlink" x="0px" y="0px"
	 viewBox="0 0 24 24" style="enable-background:new 0 0 24 24;" xml:space="preserve">
<style type="text/css">
	.st0{fill:#55FF55;}
</style>
<title  id="simpleicons-github-icon">GitHub icon</title>
<path class="st0" d="M12,0.3c-6.6,0-12,5.4-12,12c0,5.3,3.4,9.8,8.2,11.4C8.8,23.8,9,23.4,9,23.1c0-0.3,0-1,0-2
	c-3.3,0.7-4-1.6-4-1.6c-0.5-1.4-1.3-1.8-1.3-1.8C2.5,17,3.7,17,3.7,17c1.2,0.1,1.8,1.2,1.8,1.2c1.1,1.8,2.8,1.3,3.5,1
	c0.1-0.8,0.4-1.3,0.8-1.6c-2.7-0.3-5.5-1.3-5.5-5.9c0-1.3,0.5-2.4,1.2-3.2C5.4,8.1,5,6.9,5.7,5.3c0,0,1-0.3,3.3,1.2
	c1-0.3,2-0.4,3-0.4c1,0,2,0.1,3,0.4c2.3-1.6,3.3-1.2,3.3-1.2c0.6,1.7,0.2,2.9,0.1,3.2c0.8,0.8,1.2,1.9,1.2,3.2
	c0,4.6-2.8,5.6-5.5,5.9c0.4,0.4,0.8,1.1,0.8,2.2c0,1.6,0,2.9,0,3.3c0,0.3,0.2,0.7,0.8,0.6c4.8-1.6,8.2-6.1,8.2-11.4
	C24,5.7,18.6,0.3,12,0.3"/>
</svg>
